# Blender v2.81 (sub 16) OBJ File: ''
# www.blender.org
mtllib crystal.mtl
o Cone_Cone.001
v -0.077350 0.341750 0.500000
v 0.788675 0.341750 0.000000
v 0.788675 0.341750 1.000000
v 0.500000 1.158250 0.500000
vt 0.250000 0.490000
vt 0.250000 0.250000
vt 0.457846 0.130000
vt 0.042154 0.130000
vt 0.750000 0.490000
vt 0.957846 0.130000
vt 0.542154 0.130000
vn -0.4714 0.3333 -0.8165
vn 0.9428 0.3333 0.0000
vn -0.4714 0.3333 0.8165
vn 0.0000 -1.0000 -0.0000
usemtl 1
s off
f 1/1/1 4/2/1 2/3/1
f 2/3/2 4/2/2 3/4/2
f 3/4/3 4/2/3 1/1/3
f 1/5/4 2/6/4 3/7/4
