# Blender v2.81 (sub 16) OBJ File: ''
# www.blender.org
mtllib crystal.mtl
o Cone_Cone.002
v 0.500000 0.788675 0.091752
v 0.853553 0.211325 0.295876
v 0.500000 0.211325 0.908248
v 0.146447 0.788675 0.704124
v 0.853553 0.788675 0.704124
v 0.500000 0.788675 0.091752
v 0.146447 0.788675 0.704124
v 0.500000 0.211325 0.908248
v 0.853553 0.211325 0.295876
v 0.146447 0.211325 0.295876
vt 0.250000 0.490000
vt 0.250000 0.250000
vt 0.490000 0.250000
vt 0.250000 0.010000
vt 0.010000 0.250000
vt 0.250000 0.490000
vt 0.250000 0.250000
vt 0.490000 0.250000
vt 0.250000 0.010000
vt 0.010000 0.250000
vn 0.8165 0.3333 -0.4714
vn 0.8165 -0.3333 0.4714
vn 0.0000 0.3333 0.9428
vn -0.0000 1.0000 -0.0000
vn -0.8165 0.3333 -0.4714
vn -0.8165 -0.3333 0.4714
vn 0.0000 -1.0000 0.0000
vn 0.0000 -0.3333 -0.9428
usemtl 1
s off
f 1/1/1 5/2/1 2/3/1
f 2/3/2 5/2/2 3/4/2
f 3/4/3 5/2/3 4/5/3
f 4/5/4 5/2/4 1/1/4
f 6/6/5 10/7/5 7/8/5
f 7/8/6 10/7/6 8/9/6
f 8/9/7 10/7/7 9/10/7
f 9/10/8 10/7/8 6/6/8
